<svg t="1719977255379" class="icon" viewBox="0 0 1024 1024" version="1.1" xmlns="http://www.w3.org/2000/svg" p-id="10331" width="200" height="200"><path d="M902.144 190.464q43.008 1.024 64.512 24.064t21.504 60.928l0 41.984q0 36.864-0.512 88.576t-0.512 111.616-0.512 112.128-0.512 90.112l0 45.056q0 32.768-18.944 54.784t-46.592 22.016l-784.384 0q-32.768-1.024-57.344-24.064t-24.576-59.904l0-481.28q0-16.384 5.632-31.744t16.384-27.648 26.112-19.968 35.84-7.68l44.032 0 88.064 0 116.736 0 133.12 0 131.072 0q65.536 0 118.272 0.512t88.576 0.512l44.032 0zM857.088 286.72l-694.272 0 1.024 452.608 692.224-1.024zM924.672 477.184q-15.36 0-26.624 10.752t-11.264 26.112 11.264 26.112 26.624 10.752 26.624-10.752 11.264-26.112-11.264-26.112-26.624-10.752z" p-id="10332"></path></svg>