<svg t="1719977143796" class="icon" viewBox="0 0 1024 1024" version="1.1" xmlns="http://www.w3.org/2000/svg" p-id="8356" width="200" height="200"><path d="M853.461333 768h-298.666666v85.333333h128a42.922667 42.922667 0 0 1 42.666666 42.666667 42.666667 42.666667 0 0 1-42.666666 42.666667h-341.333334a42.666667 42.666667 0 0 1 0-85.333334h128v-85.333333h-298.666666a85.333333 85.333333 0 0 1-85.333334-85.333333V170.666667a85.546667 85.546667 0 0 1 85.333334-85.333334h682.666666a86.314667 86.314667 0 0 1 85.333334 85.333334v512a85.333333 85.333333 0 0 1-85.333334 85.333333z m0-597.333333h-682.666666c0.512 44.629333 0.938667 102.4 0 341.333333h682.666666s1.536-287.445333 0-341.333333z m0 426.666666H172.074667L170.666667 640a42.666667 42.666667 0 0 0 42.666666 42.666667h597.333334a43.093333 43.093333 0 0 0 42.666666-42.666667z m0 0" fill="#666666" p-id="8357"></path></svg>