<svg t="1719977233020" class="icon" viewBox="0 0 1024 1024" version="1.1" xmlns="http://www.w3.org/2000/svg" p-id="9341" width="200" height="200"><path d="M703.591573 64.021106H255.859295c-35.322483 0-63.956637 28.634154-63.956637 63.956637v767.535931c0 35.322483 28.634154 63.956637 63.956637 63.956637h447.732278c35.322483 0 63.956637-28.634154 63.956637-63.956637V127.977743c0-35.322483-28.634154-63.956637-63.956637-63.956637z m-0.004093 799.765982c0 17.520025-14.202467 31.722492-31.722492 31.722493H287.585881c-17.520025 0-31.722492-14.202467-31.722492-31.722493V159.704328c0-17.520025 14.202467-31.722492 31.722492-31.722492h384.279107c17.520025 0 31.722492 14.202467 31.722492 31.722492v704.08276z" p-id="9342"></path><path d="M575.667042 224.180805c0 17.520025-14.202467 31.722492-31.722492 31.722493H415.507342c-17.520025 0-31.722492-14.202467-31.722492-31.722493v-0.515746c0-17.520025 14.202467-31.722492 31.722492-31.722492h128.437208c17.520025 0 31.722492 14.202467 31.722492 31.722492v0.515746z" p-id="9343"></path><path d="M479.725946 831.54885m-31.980366 0a31.980365 31.980365 0 1 0 63.960731 0 31.980365 31.980365 0 1 0-63.960731 0Z" p-id="9344"></path><path d="M255.863389 735.49826h447.724091v31.722492H255.863389z" p-id="9345"></path></svg>